<?xml version="1.0" encoding="utf-8"?>
<!-- Generator: Adobe Illustrator 22.1.0, SVG Export Plug-In . SVG Version: 6.00 Build 0)  -->
<svg version="1.1" id="Layer_1" xmlns="http://www.w3.org/2000/svg" xmlns:xlink="http://www.w3.org/1999/xlink" x="0px" y="0px"
	 viewBox="0 0 256 256" style="enable-background:new 0 0 256 256;" xml:space="preserve">
<style type="text/css">
	.st0{clip-path:url(#SVGID_2_);fill:#B8A7DD;}
	.st1{clip-path:url(#SVGID_2_);}
	.st2{fill:#FFFFFF;}
</style>
<g>
	<defs>
		<circle id="SVGID_1_" cx="128" cy="128" r="128"/>
	</defs>
	<clipPath id="SVGID_2_">
		<use xlink:href="#SVGID_1_"  style="overflow:visible;"/>
	</clipPath>
	<circle class="st0" cx="128" cy="128" r="128"/>
	<g id="gBVZ14_1_" class="st1">
		<g>
			<path class="st2" d="M74.2,165c0-11.6,0-23.1,0-34.7c10.2,0,20.4,0,31,0c0-1.9,0-3.1,0-4.4c0.2-10.2,0.1-20.5,0.7-30.7
				c1.1-18.1,13.3-32.3,30.9-36.7c3.7-0.9,7.5-1.4,11.2-2.1c2.6,0,5.1,0,7.7,0c7.5,0.4,15,0.9,22.5,1.3c0,10.7,0,21.4,0,32.1
				c-8.2,0-16.5-0.5-24.6,0.1c-6.8,0.5-11,4.3-11.5,11.2c-0.8,9.4-0.2,18.9-0.2,28.9c11.4,0,23,0,34.7,0c-1.5,11.9-3,23.2-4.5,34.8
				c-9.1,0-17.8,0.1-26.6-0.1c-3.1-0.1-4.2,0.6-4.2,4c0.2,27.5,0.1,54.9,0.1,82.4c0,1.8,0.1,3.6,0.1,5.4c-12.2,0-24.4,0-36.6,0
				c0.1-0.5,0.1-1.1,0.1-1.6c0-29.2,0-58.3,0-87.5c0-0.7-0.1-1.5-0.2-2.7C94.7,165,84.5,165,74.2,165z"/>
		</g>
	</g>
</g>
</svg>
