<?xml version="1.0" encoding="utf-8"?>
<!-- Generator: Adobe Illustrator 22.1.0, SVG Export Plug-In . SVG Version: 6.00 Build 0)  -->
<svg version="1.1" id="Layer_1" xmlns="http://www.w3.org/2000/svg" xmlns:xlink="http://www.w3.org/1999/xlink" x="0px" y="0px"
	 viewBox="0 0 256 256" style="enable-background:new 0 0 256 256;" xml:space="preserve">
<style type="text/css">
	.st0{fill:#B8A7DD;}
	.st1{fill:#FFFFFF;}
</style>
<circle class="st0" cx="128" cy="128" r="128"/>
<g id="sp1cZm_1_">
	<g>
		<path class="st1" d="M35,160.7c0-22,0-43.9,0-65.9c0.2-2.5,0.5-4.9,0.6-7.4c0.8-13.1,4.1-25.3,13.1-35.4
			C59,40.6,72.3,35.6,87.2,35.4c27.3-0.5,54.6-0.4,81.9,0c13,0.2,25,4.2,35,13.2c11.3,10.3,16.2,23.5,16.5,38.3
			c0.5,27.3,0.7,54.6,0,81.9c-0.8,29.1-18.6,47.7-47.5,51.1c-4,0.5-8,0.7-12,1.1c-22,0-43.9,0-65.9,0c-2.7-0.2-5.3-0.5-8-0.7
			c-29.1-1.4-47.8-18.8-51.2-47.6C35.6,168.7,35.3,164.7,35,160.7z M52.4,127.6c-0.2,0-0.4,0-0.6,0c0,5.5-0.1,11,0,16.5
			c0.3,9.5,0.3,19.1,1.3,28.5c1.6,15.8,10.9,26.2,25.9,29.5c3.9,0.9,8,1.4,12,1.4c18.4,0.3,36.8,0.6,55.3,0.5
			c8.9,0,17.8-0.3,26.6-1.2c15.9-1.7,26.2-10.8,29.6-25.7c0.9-3.9,1.4-8,1.5-12c0.3-18.5,0.6-37,0.5-55.6c0-8.9-0.3-17.8-1.2-26.6
			c-1.8-16.6-11.6-27.2-28-29.8c-9.1-1.4-18.5-1.6-27.8-1.6c-19.2-0.1-38.5,0-57.7,0.6c-24,0.7-36.5,13.4-37.2,37.4
			C52,102.2,52.4,114.9,52.4,127.6z"/>
		<path class="st1" d="M176,128c0,26.5-21.5,47.7-48.2,47.6c-26.3-0.1-47.5-21.5-47.5-48.1c0-26.5,21.5-47.7,48.2-47.6
			C154.9,80,176.1,101.4,176,128z M159.2,127.7c0-17-14-31-31.1-31c-17,0-31,13.9-31,31c0,17.2,14,31.2,31.2,31.1
			C145.4,158.7,159.3,144.7,159.2,127.7z"/>
		<path class="st1" d="M177.8,89.2c-6.2,0-11.2-5.2-11.1-11.4c0.1-6.2,5.2-11.1,11.5-11c6.1,0.1,10.9,5,10.9,11.2
			C189.1,84.3,184.1,89.3,177.8,89.2z"/>
	</g>
</g>
</svg>
