<?xml version="1.0" encoding="utf-8"?>
<!-- Generator: Adobe Illustrator 22.1.0, SVG Export Plug-In . SVG Version: 6.00 Build 0)  -->
<svg version="1.1" id="Layer_1" xmlns="http://www.w3.org/2000/svg" xmlns:xlink="http://www.w3.org/1999/xlink" x="0px" y="0px"
	 viewBox="0 0 256 256" style="enable-background:new 0 0 256 256;" xml:space="preserve">
<style type="text/css">
	.st0{fill:#B8A7DD;}
	.st1{fill:#FFFFFF;}
</style>
<circle class="st0" cx="128" cy="128" r="128"/>
<g id="_x37_9qksZ_1_">
	<g>
		<path class="st1" d="M31.3,197.5c21.4,2,40.7-3.3,58.1-16.5c-18.3-1.6-30.4-10.7-37.1-27.6c3.1,0.1,5.9,0.4,8.7,0.3
			c2.8-0.1,5.6-0.6,8.5-1.1c-19.5-6.1-30-19-31.1-39.5c5.6,2.5,11.2,4.4,17.4,4.5c-17.6-14.7-21.5-32.3-12-53.3
			c21.8,25.6,49.1,39.6,82.4,41.9c-0.3-2.6-0.6-4.8-0.7-7.1c-0.6-12.4,3.7-22.9,12.7-31.3c10-9.2,21.9-12.3,35.1-9.8
			c7.6,1.4,14.3,5,19.8,10.6c0.8,0.8,1.5,1.1,2.7,0.8c7.5-1.7,14.6-4.2,21.3-8c0.6-0.3,1.2-0.6,1.8-0.9c0.1,0,0.2,0,0.5,0
			c-3,9-8.6,15.9-16.4,21.2c7.5-0.5,14.5-2.8,21.8-5.7c-3.7,5.5-7.7,10.2-12.3,14.3c-1.9,1.8-4,3.4-6.1,5c-1.1,0.8-1.5,1.7-1.4,3
			c0.5,11.4-1,22.7-4.1,33.6c-2.6,9.4-6.4,18.5-11.3,27c-5.1,9-11.3,17.1-18.5,24.4c-10.3,10.3-22.1,18.2-35.6,23.6
			c-12.5,5.1-25.5,7.7-39,8.1c-9.5,0.3-18.9-0.3-28.1-2.3c-9.3-2-18.4-5-26.9-9.4c-3.5-1.8-7-3.7-10.5-5.6
			C31.1,197.8,31.2,197.6,31.3,197.5z"/>
	</g>
</g>
</svg>
